<svg id="visual" viewBox="0 0 960 540" width="960" height="540" xmlns="http://www.w3.org/2000/svg" xmlns:xlink="http://www.w3.org/1999/xlink" version="1.1"><rect x="0" y="0" width="960" height="540" fill="#F7F7F7"></rect><path d="M0 377L22.8 380C45.7 383 91.3 389 137 388C182.7 387 228.3 379 274 375.5C319.7 372 365.3 373 411.2 377.2C457 381.3 503 388.7 548.8 391.2C594.7 393.7 640.3 391.3 686 391.5C731.7 391.7 777.3 394.3 823 391.5C868.7 388.7 914.3 380.3 937.2 376.2L960 372L960 541L937.2 541C914.3 541 868.7 541 823 541C777.3 541 731.7 541 686 541C640.3 541 594.7 541 548.8 541C503 541 457 541 411.2 541C365.3 541 319.7 541 274 541C228.3 541 182.7 541 137 541C91.3 541 45.7 541 22.8 541L0 541Z" fill="#78c0e0"></path><path d="M0 429L22.8 433.2C45.7 437.3 91.3 445.7 137 444.7C182.7 443.7 228.3 433.3 274 432.3C319.7 431.3 365.3 439.7 411.2 441C457 442.3 503 436.7 548.8 436.5C594.7 436.3 640.3 441.7 686 439.5C731.7 437.3 777.3 427.7 823 428C868.7 428.3 914.3 438.7 937.2 443.8L960 449L960 541L937.2 541C914.3 541 868.7 541 823 541C777.3 541 731.7 541 686 541C640.3 541 594.7 541 548.8 541C503 541 457 541 411.2 541C365.3 541 319.7 541 274 541C228.3 541 182.7 541 137 541C91.3 541 45.7 541 22.8 541L0 541Z" fill="#5eafd9"></path><path d="M0 471L22.8 474.7C45.7 478.3 91.3 485.7 137 485.7C182.7 485.7 228.3 478.3 274 477C319.7 475.7 365.3 480.3 411.2 479.8C457 479.3 503 473.7 548.8 475.2C594.7 476.7 640.3 485.3 686 486.3C731.7 487.3 777.3 480.7 823 478.7C868.7 476.7 914.3 479.3 937.2 480.7L960 482L960 541L937.2 541C914.3 541 868.7 541 823 541C777.3 541 731.7 541 686 541C640.3 541 594.7 541 548.8 541C503 541 457 541 411.2 541C365.3 541 319.7 541 274 541C228.3 541 182.7 541 137 541C91.3 541 45.7 541 22.8 541L0 541Z" fill="#449dd1"></path></svg>