<svg id="visual" viewBox="0 0 900 600" width="900" height="600" xmlns="http://www.w3.org/2000/svg" xmlns:xlink="http://www.w3.org/1999/xlink" version="1.1"><rect x="0" y="0" width="900" height="600" fill="#f8f8f8"></rect><path d="M0 303L25 301.8C50 300.7 100 298.3 150 314.2C200 330 250 364 300 377.3C350 390.7 400 383.3 450 367.7C500 352 550 328 600 324.8C650 321.7 700 339.3 750 344.3C800 349.3 850 341.7 875 337.8L900 334L900 601L875 601C850 601 800 601 750 601C700 601 650 601 600 601C550 601 500 601 450 601C400 601 350 601 300 601C250 601 200 601 150 601C100 601 50 601 25 601L0 601Z" fill="#dee9f8"></path><path d="M0 433L25 428.5C50 424 100 415 150 410.2C200 405.3 250 404.7 300 395.2C350 385.7 400 367.3 450 358C500 348.7 550 348.3 600 362.3C650 376.3 700 404.7 750 415.5C800 426.3 850 419.7 875 416.3L900 413L900 601L875 601C850 601 800 601 750 601C700 601 650 601 600 601C550 601 500 601 450 601C400 601 350 601 300 601C250 601 200 601 150 601C100 601 50 601 25 601L0 601Z" fill="#acc3ec"></path><path d="M0 434L25 437.8C50 441.7 100 449.3 150 456.7C200 464 250 471 300 465C350 459 400 440 450 432.2C500 424.3 550 427.7 600 429.3C650 431 700 431 750 438.7C800 446.3 850 461.7 875 469.3L900 477L900 601L875 601C850 601 800 601 750 601C700 601 650 601 600 601C550 601 500 601 450 601C400 601 350 601 300 601C250 601 200 601 150 601C100 601 50 601 25 601L0 601Z" fill="#809cde"></path><path d="M0 509L25 507.2C50 505.3 100 501.7 150 500.8C200 500 250 502 300 499.2C350 496.3 400 488.7 450 489C500 489.3 550 497.7 600 497.2C650 496.7 700 487.3 750 481.7C800 476 850 474 875 473L900 472L900 601L875 601C850 601 800 601 750 601C700 601 650 601 600 601C550 601 500 601 450 601C400 601 350 601 300 601C250 601 200 601 150 601C100 601 50 601 25 601L0 601Z" fill="#5c74cd"></path><path d="M0 520L25 523.7C50 527.3 100 534.7 150 542.3C200 550 250 558 300 555.3C350 552.7 400 539.3 450 533.8C500 528.3 550 530.7 600 531.3C650 532 700 531 750 535C800 539 850 548 875 552.5L900 557L900 601L875 601C850 601 800 601 750 601C700 601 650 601 600 601C550 601 500 601 450 601C400 601 350 601 300 601C250 601 200 601 150 601C100 601 50 601 25 601L0 601Z" fill="#424bb7"></path></svg>